<svg xmlns="http://www.w3.org/2000/svg" version="1.1" xmlns:xlink="http://www.w3.org/1999/xlink" xmlns:svgjs="http://svgjs.dev/svgjs" width="1000" height="1000" viewBox="0 0 1000 1000">

<g transform="matrix(0.7,0,0,0.7,150,172.04999999999995)"><svg viewBox="0 0 384 360" data-background-color="#e91e63" preserveAspectRatio="xMidYMid meet" height="1000" width="1000" xmlns="http://www.w3.org/2000/svg" xmlns:xlink="http://www.w3.org/1999/xlink"><g id="tight-bounds" transform="matrix(1,0,0,1,0,0)">
<svg viewBox="0 0 384 360" height="360" width="384"><g><svg>
</svg></g><g><svg viewBox="0 0 384 360" height="360" width="384">
<g>
<path xmlns="http://www.w3.org/2000/svg" 
d="M362.354 145.441v-42.24c0-21.12-19.163-38.402-42.587-38.402h-93.208c-15.198 0-28.337-8.831-34.559-21.646-6.222 12.81-19.36 21.646-34.559 21.646h-93.208c-23.424 0-42.587 17.282-42.587 38.402v42.24c0 15.198-8.831 28.337-21.646 34.559 12.81 6.222 21.646 19.36 21.646 34.559v42.24c0 21.12 19.163 38.402 42.587 38.402h93.208c15.198 0 28.337 8.831 34.559 21.646 6.222-12.81 19.36-21.646 34.559-21.646h93.208c23.424 0 42.587-17.282 42.587-38.402v-42.24c0-15.198 8.831-28.337 21.646-34.559-12.81-6.222-21.646-19.36-21.646-34.559z" 
fill="#e91e63" fill-rule="nonzero" stroke="none" stroke-width="1" stroke-linecap="butt" stroke-linejoin="miter" stroke-miterlimit="10" stroke-dasharray="" stroke-dashoffset="0" font-family="none" font-weight="none" font-size="none" text-anchor="none" style="mix-blend-mode: normal" data-fill-palette-color="tertiary"></path></g><g transform="matrix(1,0,0,1,123.01648351648352,99)"><svg viewBox="0 0 137.96703296703296 162" height="162" width="137.96703296703296"><g><svg viewBox="0 0 137.96703296703296 162" height="162" width="137.96703296703296"><g><svg viewBox="0 0 137.96703296703296 162" height="162" width="137.96703296703296"><g><svg viewBox="0 0 137.96703296703296 162" height="162" width="137.96703296703296"><g id="textblocktransform"><svg viewBox="0 0 137.96703296703296 162" height="162" width="137.96703296703296" id="textblock"><g><svg viewBox="0 0 137.96703296703296 162" height="162" width="137.96703296703296"><g transform="matrix(1,0,0,1,0,0)"><svg width="137.96703296703296" viewBox="2 -35.900001525878906 31 36.400001525878906" height="162" data-palette-color="#001f3f"><path d="M19.95 0.5L19.95 0.5Q16.55 0.5 13.35-0.28 10.15-1.05 7.58-3.05 5-5.05 3.5-8.6 2-12.15 2-17.7L2-17.7Q2-22.85 3.5-26.35 5-29.85 7.5-31.95 10-34.05 12.98-34.98 15.95-35.9 18.95-35.9L18.95-35.9Q21.5-35.9 23.93-35.5 26.35-35.1 27.45-34.6L27.45-34.6 33-30.05 28.5-22.8 19.95-27.2Q16.4-27.2 13.95-24.88 11.5-22.55 11.5-17.7L11.5-17.7Q11.5-14.25 12.73-12.1 13.95-9.95 16.1-8.95 18.25-7.95 21-7.95L21-7.95Q23.9-7.95 25.95-8.43 28-8.9 29.55-9.58 31.1-10.25 32.5-10.9L32.5-10.9 32.5-2.5Q30.75-1.4 27.85-0.45 24.95 0.5 19.95 0.5Z" opacity="1" transform="matrix(1,0,0,1,0,0)" fill="#001f3f" class="wordmark-text-0" data-fill-palette-color="quaternary" id="text-0"></path></svg></g></svg></g></svg></g></svg></g></svg></g></svg></g></svg></g></svg></g><defs></defs></svg>

</g></svg></g></svg>